<svg width="100" height="100" viewBox="0 0 100 100" fill="none" xmlns="http://www.w3.org/2000/svg">
<path d="M39.1667 43.75L59.0208 9.35415C56.125 8.70831 53.1042 8.33331 50 8.33331C40 8.33331 30.8542 11.8541 23.6667 17.7291L38.9375 44.1666L39.1667 43.75ZM89.75 37.5C85.9167 25.3125 76.625 15.5833 64.7708 11.0833L49.5208 37.5H89.75ZM90.8333 41.6666H59.625L60.8333 43.75L80.6875 78.125C87.4792 70.7083 91.6667 60.8541 91.6667 50C91.6667 47.1458 91.375 44.3541 90.8333 41.6666ZM35.5625 50L19.3125 21.875C12.5208 29.2916 8.33333 39.1458 8.33333 50C8.33333 52.8541 8.625 55.6458 9.16666 58.3333H40.375L35.5625 50ZM10.25 62.5C14.0833 74.6875 23.375 84.4166 35.2292 88.9167L50.4792 62.5H10.25ZM57.2083 62.5L40.9583 90.6458C43.875 91.2916 46.8958 91.6667 50 91.6667C60 91.6667 69.1458 88.1458 76.3333 82.2708L61.0625 55.8333L57.2083 62.5Z" fill="white"/>
</svg>
