<svg width="40" height="40" viewBox="0 0 40 40" fill="none" xmlns="http://www.w3.org/2000/svg">
<path d="M20 2.5C10.3359 2.5 2.5 10.3359 2.5 20C2.5 29.6641 10.3359 37.5 20 37.5C29.6641 37.5 37.5 29.6641 37.5 20C37.5 10.3359 29.6641 2.5 20 2.5ZM21.5781 28.0234C21.5391 29.4141 20.5078 30.2734 19.1719 30.2344C17.8906 30.1953 16.8828 29.2812 16.9219 27.8828C16.9609 26.4922 18.0234 25.6094 19.3047 25.6484C20.6484 25.6875 21.625 26.6328 21.5781 28.0234ZM25.3828 18.0781C25.0547 18.5391 24.3203 19.1328 23.3984 19.8516L22.375 20.5547C21.875 20.9375 21.5625 21.3906 21.3984 21.9062C21.3125 22.1797 21.25 22.8906 21.2344 23.3672C21.2266 23.4609 21.1719 23.6719 20.8828 23.6719C20.5937 23.6719 18.1484 23.6719 17.8281 23.6719C17.5078 23.6719 17.4688 23.4844 17.4766 23.3906C17.5234 22.0938 17.7109 21.0234 18.25 20.1641C18.9766 19.0078 21.0234 17.7891 21.0234 17.7891C21.3359 17.5547 21.5781 17.3047 21.7656 17.0312C22.1094 16.5625 22.3906 16.0391 22.3906 15.4766C22.3906 14.8281 22.2344 14.2109 21.8203 13.6953C21.3359 13.0938 20.8125 12.8047 19.8047 12.8047C18.8125 12.8047 18.2344 13.3047 17.8203 13.9609C17.4062 14.6172 17.4766 15.3906 17.4766 16.0938H13.6719C13.6719 13.4375 14.3672 11.7422 15.8359 10.7422C16.8281 10.0625 18.0938 9.76562 19.5703 9.76562C21.5078 9.76562 23.0469 10.125 24.4062 11.1562C25.6641 12.1094 26.3281 13.4531 26.3281 15.2656C26.3281 16.3828 25.9375 17.3203 25.3828 18.0781Z" fill="white"/>
</svg>
